<?xml version="1.0" encoding="utf-8"?>
<!-- Generator: Adobe Illustrator 23.0.2, SVG Export Plug-In . SVG Version: 6.00 Build 0)  -->
<svg version="1.1" id="Layer_1" xmlns="http://www.w3.org/2000/svg" xmlns:xlink="http://www.w3.org/1999/xlink" x="0px" y="0px"
	 viewBox="0 0 242.78 90.66" style="enable-background:new 0 0 242.78 90.66;" xml:space="preserve">
<style type="text/css">
	.st0{fill:#3366FF;}
	.st1{fill:#3366FF;stroke:#3366FF;stroke-width:1.9111;stroke-miterlimit:10;}
	.st2{fill:none;stroke:#3366FF;stroke-width:5.6856;stroke-miterlimit:10;}
	.st3{fill:#FFFFFF;}
	.st4{fill:none;stroke:#000000;stroke-width:4.4761;stroke-linecap:round;stroke-linejoin:round;stroke-miterlimit:10;}
	.st5{fill:none;stroke:#FFFFFF;stroke-width:4.4761;stroke-linecap:round;stroke-linejoin:round;stroke-miterlimit:10;}
</style>
<g>
	<g>
		<path d="M21.18,17.21c-0.13,0.06-4.6,2.62-4.6,2.62v-4.95c0-1.34-1.09-2.43-2.43-2.43h0c-1.34,0-2.43,1.09-2.43,2.43v5.63
			l9.45,18.73v9.04c0,2.78-2.25,5.03-5.03,5.03h-3.8c-2.78,0-5.03-2.25-5.03-5.03v-6.05l4.4-2.99v7.56c0,1.34,1.09,2.43,2.43,2.43
			h0.14c1.34,0,2.43-1.09,2.43-2.43v-7.35L7.33,21.92v-8.5c0-2.78,2.25-5.03,5.03-5.03h3.8c2.78,0,5.03,2.25,5.03,5.03V17.21z"/>
		<polygon points="53,8.81 59.84,53.3 54.87,53.3 50.72,23.46 46.81,53.3 41.67,53.3 48.49,8.81 		"/>
		<polygon points="123.18,53.3 130.02,8.81 125.05,8.81 120.9,38.64 116.99,8.81 111.86,8.81 118.67,53.3 		"/>
		<polygon points="159.42,8.81 166.26,53.3 161.29,53.3 157.13,23.46 153.23,53.3 148.09,53.3 154.91,8.81 		"/>
		<polygon points="81.47,8.81 85.92,8.81 85.92,48.47 96.76,48.47 94.8,53.3 81.47,53.3 		"/>
		<path d="M196.9,8.81v38.87c0,3.11-2.52,5.63-5.63,5.63h-1.88c-3.11,0-5.63-2.52-5.63-5.63v-2.16l4.03-2.62v3.9
			c0,1.29,1.05,2.34,2.34,2.34h0c1.29,0,2.34-1.05,2.34-2.34V10.45L196.9,8.81z"/>
		<polygon points="222.71,8.81 235.45,8.81 235.45,14.03 227.13,14.03 227.13,28.59 235,28.59 232.85,33.53 227,33.53 227,48.16 
			235.45,48.16 235.45,53.3 222.71,53.3 		"/>
	</g>
	<g>
		<path d="M88.37,79.92c0,0.33-0.07,0.64-0.2,0.92c-0.13,0.28-0.31,0.52-0.54,0.72c-0.22,0.2-0.49,0.36-0.79,0.47
			s-0.62,0.17-0.96,0.17H81.7v-8.86h4.27c0.31,0,0.59,0.07,0.84,0.2c0.25,0.13,0.46,0.31,0.64,0.52c0.17,0.21,0.31,0.45,0.41,0.72
			s0.14,0.54,0.14,0.82c0,0.45-0.11,0.86-0.34,1.23c-0.22,0.37-0.54,0.65-0.94,0.83c0.51,0.15,0.91,0.43,1.21,0.84
			S88.37,79.38,88.37,79.92z M82.58,74.1v3.27h3.05c0.22,0,0.42-0.05,0.61-0.14c0.19-0.09,0.35-0.21,0.48-0.36
			c0.13-0.15,0.24-0.32,0.31-0.52c0.08-0.2,0.11-0.4,0.11-0.62c0-0.22-0.04-0.44-0.11-0.64c-0.07-0.2-0.17-0.37-0.3-0.52
			s-0.28-0.26-0.46-0.35S85.9,74.1,85.7,74.1H82.58z M87.49,79.77c0-0.22-0.04-0.43-0.11-0.63s-0.18-0.38-0.32-0.54
			c-0.14-0.15-0.3-0.28-0.49-0.37c-0.19-0.1-0.39-0.14-0.61-0.14h-3.4v3.36h3.31c0.22,0,0.43-0.05,0.63-0.14
			c0.2-0.09,0.37-0.21,0.51-0.37c0.15-0.15,0.26-0.33,0.34-0.54C87.45,80.2,87.49,79.99,87.49,79.77z"/>
		<path d="M98.08,82.27c-0.62,0-1.18-0.13-1.69-0.38c-0.51-0.25-0.95-0.59-1.32-1.01s-0.65-0.9-0.85-1.44
			c-0.2-0.54-0.3-1.09-0.3-1.66c0-0.59,0.11-1.16,0.32-1.7c0.21-0.54,0.51-1.02,0.88-1.44c0.38-0.42,0.82-0.75,1.32-0.99
			c0.51-0.25,1.06-0.37,1.65-0.37c0.62,0,1.18,0.13,1.69,0.39c0.51,0.26,0.95,0.61,1.31,1.03c0.36,0.42,0.64,0.9,0.84,1.44
			c0.2,0.54,0.3,1.08,0.3,1.64c0,0.59-0.11,1.16-0.32,1.7c-0.21,0.54-0.5,1.02-0.87,1.43c-0.37,0.41-0.81,0.74-1.32,0.99
			S98.67,82.27,98.08,82.27z M94.8,77.77c0,0.48,0.08,0.95,0.24,1.39s0.38,0.84,0.67,1.19s0.64,0.62,1.04,0.82
			c0.4,0.2,0.84,0.31,1.34,0.31c0.5,0,0.95-0.11,1.36-0.32c0.41-0.22,0.75-0.5,1.04-0.85s0.5-0.74,0.66-1.19
			c0.15-0.44,0.23-0.89,0.23-1.35c0-0.48-0.08-0.95-0.24-1.39c-0.16-0.45-0.39-0.84-0.68-1.18c-0.29-0.34-0.64-0.61-1.04-0.82
			c-0.4-0.2-0.84-0.31-1.32-0.31c-0.5,0-0.95,0.11-1.36,0.32c-0.41,0.21-0.75,0.49-1.04,0.84c-0.28,0.35-0.5,0.75-0.66,1.19
			C94.88,76.87,94.8,77.31,94.8,77.77z"/>
		<path d="M114.79,80.91c-0.82,0.91-1.77,1.36-2.85,1.36c-0.6,0-1.15-0.13-1.65-0.39c-0.5-0.26-0.94-0.6-1.31-1.02
			c-0.37-0.42-0.66-0.9-0.87-1.44c-0.21-0.54-0.31-1.09-0.31-1.65c0-0.59,0.1-1.16,0.31-1.7s0.49-1.02,0.86-1.43s0.8-0.74,1.3-0.99
			c0.5-0.25,1.04-0.37,1.63-0.37c0.43,0,0.83,0.05,1.19,0.14c0.36,0.1,0.68,0.23,0.96,0.4c0.28,0.17,0.52,0.37,0.72,0.61
			c0.2,0.24,0.38,0.5,0.52,0.78l-0.67,0.45c-0.29-0.55-0.67-0.95-1.14-1.21c-0.47-0.26-0.99-0.39-1.58-0.39
			c-0.49,0-0.93,0.1-1.33,0.31s-0.73,0.48-1.01,0.83c-0.28,0.35-0.49,0.74-0.64,1.19c-0.15,0.45-0.22,0.91-0.22,1.38
			c0,0.5,0.08,0.97,0.26,1.42c0.17,0.45,0.41,0.84,0.71,1.18c0.3,0.34,0.65,0.61,1.06,0.81c0.4,0.2,0.84,0.3,1.32,0.3
			c0.51,0,0.99-0.12,1.46-0.36c0.46-0.24,0.91-0.61,1.33-1.13v-1.47h-1.97v-0.67h2.71v4.36h-0.74V80.91z"/>
		<path d="M125.39,82.27c-0.62,0-1.18-0.13-1.69-0.38s-0.95-0.59-1.32-1.01s-0.65-0.9-0.85-1.44c-0.2-0.54-0.3-1.09-0.3-1.66
			c0-0.59,0.11-1.16,0.32-1.7c0.21-0.54,0.51-1.02,0.88-1.44c0.38-0.42,0.82-0.75,1.32-0.99c0.51-0.25,1.06-0.37,1.65-0.37
			c0.62,0,1.18,0.13,1.69,0.39c0.51,0.26,0.95,0.61,1.31,1.03c0.36,0.42,0.64,0.9,0.84,1.44c0.2,0.54,0.3,1.08,0.3,1.64
			c0,0.59-0.11,1.16-0.32,1.7c-0.21,0.54-0.5,1.02-0.87,1.43c-0.37,0.41-0.81,0.74-1.32,0.99S125.98,82.27,125.39,82.27z
			 M122.1,77.77c0,0.48,0.08,0.95,0.24,1.39s0.38,0.84,0.67,1.19s0.64,0.62,1.04,0.82c0.4,0.2,0.84,0.31,1.34,0.31
			c0.5,0,0.95-0.11,1.36-0.32c0.41-0.22,0.75-0.5,1.04-0.85c0.28-0.35,0.5-0.74,0.66-1.19c0.15-0.44,0.23-0.89,0.23-1.35
			c0-0.48-0.08-0.95-0.24-1.39c-0.16-0.45-0.39-0.84-0.68-1.18c-0.29-0.34-0.64-0.61-1.04-0.82c-0.4-0.2-0.84-0.31-1.32-0.31
			c-0.5,0-0.95,0.11-1.36,0.32c-0.41,0.21-0.75,0.49-1.04,0.84c-0.28,0.35-0.5,0.75-0.66,1.19C122.18,76.87,122.1,77.31,122.1,77.77
			z"/>
		<path d="M141.57,74.11h-3.16v8.09h-0.87v-8.09h-3.16v-0.77h7.19V74.11z"/>
		<path d="M149.26,73.34H150l3.68,8.86h-0.92l-1.15-2.77h-3.98l-1.14,2.77h-0.94L149.26,73.34z M151.41,78.75l-1.79-4.38l-1.81,4.38
			H151.41z M149.71,72.13l-0.56-0.21l0.74-1.16h0.9L149.71,72.13z"/>
	</g>
</g>
</svg>
